<svg width="45" height="35" viewBox="0 0 45 35" fill="none" xmlns="http://www.w3.org/2000/svg">
<path fill-rule="evenodd" clip-rule="evenodd" d="M17.3425 34.2563C26.7249 34.179 34.3068 26.5492 34.3068 17.1485C34.3068 7.69983 26.6472 0.0401535 17.1985 0.0401535C7.74977 0.0401535 0.0900879 7.69983 0.0900879 17.1485C0.0900879 20.0444 0.80959 22.7723 2.07958 25.1631C2.56917 26.4068 2.71581 28.4822 0.952863 30.9503C-1.20369 33.9694 12.3105 34.4007 17.3424 34.2569C17.3424 34.2567 17.3424 34.2565 17.3425 34.2563Z" fill="#0255FF"/>
<path fill-rule="evenodd" clip-rule="evenodd" d="M36.521 15.929C32.1729 15.8933 28.6592 12.3574 28.6592 8.00084C28.6592 3.62206 32.2089 0.0723629 36.5876 0.0723629C40.9664 0.0723629 44.5161 3.62206 44.5161 8.00084C44.5161 9.34244 44.1829 10.6062 43.5947 11.7139C43.3675 12.2902 43.2989 13.2525 44.1164 14.397C45.1158 15.7961 38.853 15.996 36.5211 15.9294C36.521 15.9293 36.521 15.9292 36.521 15.929Z" fill="#FFC702"/>
<path fill-rule="evenodd" clip-rule="evenodd" d="M36.521 34.3073C32.1729 34.2716 28.6592 30.7357 28.6592 26.3791C28.6592 22.0004 32.2089 18.4507 36.5876 18.4507C40.9664 18.4507 44.5161 22.0004 44.5161 26.3791C44.5161 27.7207 44.1829 28.9845 43.5947 30.0922C43.3675 30.6684 43.2989 31.6307 44.1164 32.7753C45.1158 34.1744 38.853 34.3743 36.5211 34.3077C36.521 34.3076 36.521 34.3075 36.521 34.3073Z" fill="#FFC702"/>
</svg>
